<?xml version="1.0" encoding="UTF-8" ?>
<!DOCTYPE svg PUBLIC "-//W3C//DTD SVG 1.1//EN" "http://www.w3.org/Graphics/SVG/1.1/DTD/svg11.dtd">
<svg width="485" height="206" viewBox="0 0 626 266" version="1.1" xmlns="http://www.w3.org/2000/svg">
<g id="#ffffffff">
</g>
<g id="#000000ff">
<path fill="#000000" opacity="1.00" d=" M 139.52 88.41 C 156.65 117.98 173.69 147.60 190.75 177.21 C 187.63 177.26 184.50 177.27 181.37 177.23 C 171.73 168.05 161.09 159.45 148.61 154.50 C 137.02 149.83 123.03 150.53 112.49 157.49 C 105.24 162.29 100.77 169.96 96.42 177.26 C 93.71 177.26 91.00 177.25 88.29 177.21 C 105.36 147.61 122.43 118.00 139.52 88.41 M 139.53 103.42 C 130.60 118.77 121.77 134.17 112.84 149.51 C 119.13 145.62 126.67 144.39 133.97 144.65 C 149.08 144.85 163.07 152.66 173.93 162.71 C 162.38 142.99 151.04 123.16 139.53 103.42 Z" />
<path fill="#000000" opacity="1.00" d=" M 434.25 89.00 C 436.58 89.00 438.91 89.00 441.25 89.00 C 441.25 118.42 441.25 147.83 441.25 177.25 C 438.83 177.25 436.41 177.25 434.00 177.25 C 434.00 172.95 433.99 168.65 434.02 164.36 C 429.31 170.08 423.00 174.61 415.81 176.59 C 405.94 179.41 394.64 176.97 386.98 170.08 C 371.94 156.99 370.67 131.10 384.61 116.76 C 396.31 104.51 418.12 103.79 430.30 115.70 C 431.72 117.06 432.97 118.58 434.27 120.06 C 434.22 109.71 434.27 99.36 434.25 89.00 M 403.22 114.17 C 397.81 115.11 392.82 118.01 389.16 122.07 C 378.18 134.35 379.97 155.77 393.02 165.90 C 404.30 174.67 422.58 171.13 430.06 159.04 C 436.77 148.17 436.51 132.79 428.16 122.85 C 422.22 115.71 412.28 112.42 403.22 114.17 Z" />
<path fill="#000000" opacity="1.00" d=" M 457.39 89.36 C 460.06 87.75 464.19 88.88 464.98 92.12 C 466.18 95.32 463.63 99.40 460.04 99.04 C 455.17 99.26 453.40 91.76 457.39 89.36 Z" />
<path fill="#000000" opacity="1.00" d=" M 206.98 116.35 C 212.56 107.92 224.92 104.26 233.73 109.70 C 232.47 111.79 231.26 113.90 230.07 116.02 C 226.84 114.84 223.40 113.78 219.92 114.38 C 212.58 115.49 206.89 122.62 206.99 129.97 C 207.01 145.73 207.00 161.49 207.00 177.25 C 204.58 177.25 202.16 177.25 199.75 177.25 C 199.74 154.34 199.75 131.42 199.75 108.51 C 202.16 108.50 204.57 108.49 206.99 108.49 C 207.00 111.11 207.01 113.73 206.98 116.35 Z" />
<path fill="#000000" opacity="1.00" d=" M 245.94 114.95 C 258.10 104.41 277.71 104.53 289.94 114.92 C 288.83 116.87 287.74 118.84 286.67 120.81 C 276.32 111.08 258.51 111.46 248.65 121.69 C 237.11 132.83 237.16 153.93 249.78 164.25 C 256.46 169.97 265.89 172.06 274.43 170.23 C 278.98 169.09 282.91 166.41 286.69 163.74 C 287.82 165.73 288.98 167.71 290.11 169.71 C 276.12 182.23 252.27 179.83 240.73 165.17 C 228.63 150.62 231.19 126.74 245.94 114.95 Z" />
<path fill="#000000" opacity="1.00" d=" M 306.02 117.08 C 315.88 106.34 333.20 104.27 345.81 111.15 C 349.77 113.25 352.88 116.57 355.78 119.92 C 355.72 116.11 355.75 112.31 355.75 108.50 C 358.08 108.50 360.40 108.50 362.74 108.49 C 362.76 131.41 362.74 154.33 362.75 177.25 C 360.41 177.25 358.08 177.25 355.75 177.25 C 355.75 172.89 355.72 168.53 355.78 164.17 C 350.32 170.94 342.53 176.10 333.83 177.37 C 324.71 178.83 315.02 175.97 308.18 169.74 C 293.67 156.61 292.35 131.26 306.02 117.08 M 322.47 114.71 C 317.80 116.04 313.59 118.81 310.45 122.50 C 299.88 134.75 301.75 155.63 314.40 165.73 C 325.75 174.73 344.34 171.19 351.81 158.85 C 358.92 147.11 357.93 130.05 347.57 120.48 C 340.92 114.42 331.09 112.23 322.47 114.71 Z" />
<path fill="#000000" opacity="1.00" d=" M 482.12 119.14 C 491.63 106.73 510.43 103.74 523.87 111.21 C 527.78 113.37 530.98 116.57 533.78 120.01 C 533.72 116.17 533.75 112.34 533.75 108.50 C 536.08 108.50 538.41 108.50 540.75 108.50 C 540.75 131.42 540.75 154.33 540.75 177.25 C 538.41 177.25 536.08 177.25 533.75 177.25 C 533.77 172.85 533.69 168.46 533.81 164.06 C 528.80 170.24 521.97 175.18 514.11 176.92 C 504.15 179.33 493.08 176.40 485.67 169.30 C 472.27 156.65 470.62 133.56 482.12 119.14 M 500.52 114.69 C 496.06 115.95 492.01 118.50 488.92 121.94 C 477.61 134.24 479.54 156.15 492.95 166.16 C 504.19 174.54 521.89 171.07 529.44 159.35 C 537.07 147.40 535.98 129.56 524.95 120.00 C 518.38 114.29 508.87 112.34 500.52 114.69 Z" />
<path fill="#000000" opacity="1.00" d=" M 456.50 177.00 C 456.50 154.17 456.49 131.33 456.50 108.50 C 458.92 108.49 461.33 108.50 463.75 108.51 C 463.74 131.34 463.75 154.17 463.75 177.00 C 461.33 177.00 458.91 177.00 456.50 177.00 Z" />
</g>
</svg>
